<?xml version="1.0" ?>
<!-- Uploaded to: SVG Repo, www.svgrepo.com, Generator: SVG Repo Mixer Tools -->
<svg width="800px" height="800px" viewBox="0 0 64 64" xmlns="http://www.w3.org/2000/svg">
<defs>
<style>.cls-1{fill:#22b573;}.cls-1,.cls-4{stroke:#004924;}.cls-1,.cls-2,.cls-3,.cls-4{stroke-miterlimit:10;stroke-width:2px;}.cls-2{fill:#8c6239;}.cls-2,.cls-3{stroke:#42210b;}.cls-3{fill:#c69c6d;}.cls-4{fill:none;stroke-linecap:round;}.cls-5{fill:#33d186;}</style>
</defs>
<title/>
<g data-name="Layer 8" id="Layer_8">
<path class="cls-1" d="M27.12,7.63H42.87a0,0,0,0,1,0,0V34a7.67,7.67,0,0,1-7.67,7.67H34.8A7.67,7.67,0,0,1,27.12,34V7.63A0,0,0,0,1,27.12,7.63Z" transform="translate(70 49.25) rotate(-180)"/>
<polygon class="cls-2" points="23.69 56.38 48.3 56.38 51.86 46.82 20.14 46.82 23.69 56.38"/>
<rect class="cls-3" height="5.38" rx="1.9" ry="1.9" transform="translate(72 88.38) rotate(-180)" width="38.25" x="16.87" y="41.5"/>
<line class="cls-4" x1="41.31" x2="45.44" y1="15" y2="11.25"/>
<line class="cls-4" x1="30.13" x2="25.62" y1="12.93" y2="8.82"/>
<line class="cls-4" x1="42.14" x2="45.5" y1="25.38" y2="22.79"/>
<line class="cls-4" x1="42.31" x2="46.44" y1="36" y2="32.25"/>
<line class="cls-4" x1="28.63" x2="24.5" y1="22.72" y2="18.4"/>
<circle class="cls-5" cx="33.25" cy="24.5" r="1.75"/>
<circle class="cls-5" cx="38.25" cy="29.5" r="1.75"/>
<circle class="cls-5" cx="37.25" cy="17.5" r="1.75"/>
<circle class="cls-5" cx="31.25" cy="32.5" r="1.75"/>
<circle class="cls-5" cx="38.25" cy="36.5" r="1.75"/>
<path class="cls-1" d="M15.58,21h1A3.37,3.37,0,0,1,20,24.58V30h7v7H15.32A3.34,3.34,0,0,1,12,33.52V24.58A3.46,3.46,0,0,1,15.58,21Z"/>
<circle class="cls-5" cx="15.68" cy="26.9" r="1.15"/>
<circle class="cls-5" cx="34.25" cy="13.5" r="1.75"/>
<circle class="cls-5" cx="16.04" cy="33.97" r="1.15"/>
<line class="cls-4" x1="12.92" x2="8.88" y1="32.23" y2="30.26"/>
<line class="cls-4" x1="16.81" x2="20.17" y1="22.63" y2="20.04"/>
<circle class="cls-5" cx="21.04" cy="32.97" r="1.15"/>
</g>
</svg>