<?xml version="1.0" standalone="no"?>
<!DOCTYPE svg PUBLIC "-//W3C//DTD SVG 20010904//EN"
 "http://www.w3.org/TR/2001/REC-SVG-20010904/DTD/svg10.dtd">
<svg version="1.0" xmlns="http://www.w3.org/2000/svg"
 width="512.000000pt" height="512.000000pt" viewBox="0 0 512.000000 512.000000"
 preserveAspectRatio="xMidYMid meet">
<metadata>
Created by potrace 1.16, written by Peter Selinger 2001-2019
</metadata>
<g transform="translate(0.000000,512.000000) scale(0.100000,-0.100000)"
fill="currentColor" stroke="none">
<path d="M1556 4832 c1 -27 7 -59 13 -70 15 -28 14 -37 -3 -22 -13 10 -14 5
-11 -34 3 -31 1 -46 -7 -46 -6 0 -9 -3 -6 -6 3 -3 -1 -29 -9 -57 -23 -82 -29
-337 -9 -420 9 -38 15 -103 14 -145 l-1 -77 -7 60 c-6 55 -7 52 -8 -38 -2 -92
0 -105 38 -204 39 -103 40 -111 40 -227 0 -67 -4 -127 -9 -134 -4 -7 -21 -17
-37 -22 l-29 -8 31 -1 c17 -1 37 6 44 14 7 8 21 59 30 113 10 53 21 106 26
117 4 11 4 17 1 14 -4 -3 -13 -23 -21 -45 l-15 -39 -1 65 c-1 58 -7 84 -35
155 -8 19 -8 19 12 3 34 -30 36 -20 4 25 -39 54 -54 122 -45 207 4 49 1 87
-11 141 -25 106 -23 314 5 434 11 50 22 98 23 107 0 9 4 16 7 15 11 -2 70 40
63 46 -3 4 18 0 48 -9 65 -19 117 -50 270 -160 120 -87 198 -121 246 -109 14
3 22 2 19 -3 -3 -5 7 -15 22 -21 15 -7 24 -9 20 -5 -9 8 128 55 230 79 94 22
195 29 232 16 28 -9 31 -9 20 4 -10 12 -9 15 8 15 61 0 233 -43 300 -75 64
-30 79 -34 106 -25 17 5 63 19 101 31 62 19 139 55 223 105 l27 16 -25 -21
c-14 -12 -45 -34 -71 -49 -54 -32 -139 -124 -158 -171 l-14 -33 -13 24 c-21
37 -18 -2 6 -81 26 -86 40 -108 40 -63 0 54 27 98 118 194 100 105 191 179
275 224 70 38 62 46 -11 12 -43 -21 -254 -175 -362 -265 -36 -31 -42 -33 -29
-13 27 43 341 291 433 342 50 27 99 35 123 20 6 -4 19 -21 28 -37 l17 -30 -7
29 c-4 20 -1 34 11 47 10 11 15 22 11 25 -8 8 -29 -5 -23 -14 5 -9 -41 -8 -50
1 -3 3 -13 3 -22 0 -14 -4 -14 -3 -3 5 8 6 19 8 26 6 6 -3 20 5 31 17 10 13
13 19 5 14 -9 -5 -12 -3 -9 6 3 8 10 13 16 12 5 -1 8 7 5 18 -5 19 -7 19 -25
-9 -11 -18 -47 -45 -91 -67 -40 -21 -80 -45 -89 -53 -10 -8 -18 -11 -18 -7 0
5 -7 0 -16 -11 -8 -10 -13 -12 -9 -4 4 8 -3 4 -15 -10 -12 -14 -19 -19 -15
-12 6 11 3 12 -11 4 -23 -13 -65 -47 -45 -36 9 4 12 3 7 -4 -3 -6 -14 -10 -24
-10 -9 1 -44 -15 -77 -35 -56 -34 -179 -81 -235 -90 -14 -2 -32 -7 -41 -11 -9
-4 -52 8 -103 28 -140 57 -223 68 -406 56 -168 -10 -182 -13 -313 -56 -71 -23
-91 -26 -107 -17 -13 9 -20 9 -22 1 -8 -24 -132 31 -228 103 -136 101 -226
154 -301 178 -69 23 -86 36 -111 85 -15 29 -15 29 -12 -22z m44 -67 c0 -4 -9
4 -20 18 -11 14 -20 28 -20 32 0 4 9 -4 20 -18 11 -14 20 -28 20 -32z m2235
15 c-3 -5 -11 -10 -16 -10 -6 0 -7 5 -4 10 3 6 11 10 16 10 6 0 7 -4 4 -10z"/>
<path d="M3889 4728 c-1 -2 -2 -106 -4 -233 -2 -199 -5 -240 -23 -305 -12 -41
-21 -84 -21 -95 1 -40 48 148 60 241 10 85 10 151 -4 367 -2 24 -5 33 -8 25z
m8 -165 c-3 -10 -5 -2 -5 17 0 19 2 27 5 18 2 -10 2 -26 0 -35z"/>
<path d="M1627 4699 c-24 -14 -5 -39 30 -39 14 0 21 -4 18 -10 -3 -6 4 -10 17
-10 78 0 205 -78 339 -207 100 -96 128 -140 133 -208 4 -53 16 -60 35 -21 16
34 3 91 -32 138 -48 65 -329 298 -407 338 -48 25 -110 34 -133 19z"/>
<path d="M3872 4640 c0 -14 2 -19 5 -12 2 6 2 18 0 25 -3 6 -5 1 -5 -13z"/>
<path d="M3745 4639 c-16 -5 -41 -18 -55 -29 l-25 -20 37 15 c41 16 91 21 53
5 -12 -5 -14 -9 -6 -9 8 -1 -24 -24 -70 -52 -103 -62 -125 -81 -44 -40 33 17
74 33 90 36 25 5 22 2 -17 -19 -26 -14 -51 -32 -55 -39 -4 -7 -21 -18 -37 -25
-43 -19 -27 -23 37 -8 92 21 82 15 -100 -65 -73 -31 -60 -34 17 -4 35 14 65
23 67 21 3 -2 -38 -29 -90 -59 -102 -60 -182 -129 -192 -164 -6 -20 -3 -23 23
-23 22 0 31 7 43 32 9 20 30 42 56 56 42 23 214 74 222 66 4 -3 -67 -37 -165
-79 -23 -9 -61 -38 -85 -63 l-44 -45 35 20 c19 11 51 26 70 33 19 7 44 21 56
32 25 22 219 101 204 83 -6 -8 -52 -31 -102 -52 l-90 -38 68 -5 69 -5 -63 -8
c-39 -5 -65 -14 -68 -22 -3 -8 -21 -19 -40 -25 -18 -6 -36 -15 -39 -20 -2 -4
12 -2 33 5 55 18 102 26 102 16 0 -5 -14 -11 -30 -15 -29 -5 -87 -52 -78 -61
3 -3 23 3 46 12 45 17 122 9 129 -14 3 -9 -4 -9 -30 -1 -45 14 -82 4 -113 -29
-35 -38 -29 -46 12 -18 39 27 72 35 40 10 -13 -10 -15 -15 -6 -15 10 0 10 -4
-2 -17 -8 -10 -18 -27 -22 -38 -7 -18 -5 -18 17 3 13 12 34 22 47 22 23 0 23
0 4 -22 -15 -19 -16 -20 -1 -9 23 18 22 11 -8 -40 -33 -59 -31 -66 10 -35 42
32 44 27 8 -20 -22 -30 -24 -37 -12 -46 11 -8 11 -9 -3 -4 -10 3 -20 1 -22 -3
-3 -5 11 -11 31 -14 20 -4 47 -17 61 -29 l25 -23 -17 33 c-10 19 -20 31 -23
29 -3 -3 -11 0 -18 6 -10 10 -10 19 1 50 7 20 10 45 7 54 -4 11 -3 14 5 9 8
-5 11 -1 10 11 -3 44 4 65 36 100 18 21 46 62 61 92 72 143 83 443 19 508 -25
25 -33 26 -79 12z m-20 -255 c-29 -22 -126 -71 -190 -95 -30 -11 -78 -36 -107
-56 -48 -33 -51 -33 -28 -8 14 15 93 60 175 101 148 72 189 88 150 58z"/>
<path d="M1629 4601 c-63 -49 -99 -207 -81 -354 18 -142 44 -209 102 -258 41
-34 49 -47 55 -87 4 -26 11 -55 16 -64 20 -38 -18 -6 -40 32 -26 47 -34 51
-20 10 13 -36 76 -93 92 -84 7 4 -2 -8 -19 -27 -52 -58 -61 -75 -20 -41 44 39
75 52 119 52 l31 0 -27 28 c-32 33 -34 46 -7 37 25 -8 26 2 3 28 -10 11 -12
17 -5 13 16 -10 15 4 -3 28 -24 32 -17 42 10 16 28 -26 42 -22 26 8 -18 34
-12 46 10 21 20 -23 20 -23 -1 8 -11 18 -25 35 -30 38 -6 4 -10 10 -10 16 0 5
23 -2 50 -16 57 -29 66 -19 18 19 -37 29 -27 33 27 10 43 -18 38 -2 -9 28
l-31 20 29 -7 c16 -3 50 -20 75 -37 l46 -31 -50 52 c-33 34 -63 55 -90 62 -52
14 -136 4 -194 -23 -25 -12 -50 -24 -56 -27 -5 -2 -3 4 5 14 50 61 208 80 325
39 18 -6 19 -6 4 10 -9 9 -45 24 -80 32 -62 14 -204 77 -215 95 -6 10 31 -3
78 -27 36 -19 138 -55 138 -49 0 2 -30 22 -67 44 -38 22 -84 56 -103 77 -19
21 -26 31 -15 22 38 -31 117 -69 111 -53 -4 12 0 14 22 9 65 -14 154 -47 187
-69 55 -38 41 -12 -22 40 -129 107 -191 195 -73 104 105 -82 145 -121 170
-167 16 -31 19 -34 20 -14 0 13 4 20 10 17 20 -12 9 41 -15 77 -30 44 -76 77
-208 148 -54 29 -96 54 -94 56 5 5 128 -45 145 -58 6 -6 12 -8 12 -4 0 11 -86
60 -155 88 -38 15 -62 27 -53 28 10 0 40 -9 68 -20 27 -11 50 -18 50 -15 0 2
-37 29 -83 60 -98 65 -140 76 -178 46z m273 -299 c11 -14 8 -13 -17 2 -43 27
-134 97 -142 109 -9 15 144 -92 159 -111z"/>
<path d="M3581 4540 c-31 -26 -17 -26 16 0 14 11 22 20 17 20 -5 -1 -20 -10
-33 -20z"/>
<path d="M2150 4456 c0 -3 14 -12 30 -21 17 -9 30 -13 30 -11 0 3 -13 12 -30
21 -16 9 -30 13 -30 11z"/>
<path d="M2855 4390 c10 -11 20 -20 23 -20 3 0 -3 9 -13 20 -10 11 -20 20 -23
20 -3 0 3 -9 13 -20z"/>
<path d="M3056 4345 c15 -27 36 -80 46 -119 l18 -71 -6 60 c-5 64 -32 131 -65
161 -16 14 -15 9 7 -31z"/>
<path d="M2410 4367 c-19 -16 -43 -57 -33 -57 5 1 18 16 30 35 12 19 21 35 20
35 -1 0 -9 -6 -17 -13z"/>
<path d="M2450 4318 c-13 -29 -19 -63 -19 -103 l2 -60 7 60 c5 33 15 79 23
103 8 23 13 42 10 42 -2 0 -13 -19 -23 -42z"/>
<path d="M2367 4293 c-2 -5 0 -21 4 -38 7 -29 7 -29 8 8 1 35 -3 46 -12 30z"/>
<path d="M2543 4215 c0 -38 2 -53 4 -32 2 20 2 52 0 70 -2 17 -4 1 -4 -38z"/>
<path d="M1840 4260 c0 -5 15 -17 33 -26 17 -9 70 -53 116 -98 46 -45 81 -72
76 -61 -4 11 -9 29 -12 40 -4 18 -3 18 9 4 7 -8 21 -18 32 -22 13 -5 8 4 -15
31 -48 54 -94 86 -168 116 -74 30 -71 29 -71 16z"/>
<path d="M3496 4149 c-14 -11 -31 -30 -37 -42 -10 -19 -8 -18 17 5 16 15 43
34 59 42 25 13 27 16 9 16 -12 0 -33 -9 -48 -21z"/>
<path d="M2552 4125 c0 -11 3 -29 8 -40 11 -25 11 1 0 35 -6 20 -8 21 -8 5z"/>
<path d="M3870 4119 c0 -8 -6 -26 -14 -40 -7 -14 -14 -48 -14 -75 -1 -27 -13
-82 -27 -123 -14 -41 -23 -76 -21 -78 2 -2 14 26 26 64 12 37 34 84 48 103 22
30 23 32 4 16 -28 -24 -28 -13 0 33 l22 36 -22 -19 c-26 -23 -26 -22 -6 38 9
26 13 50 10 53 -3 4 -6 0 -6 -8z"/>
<path d="M3803 4057 c-16 -26 -18 -43 -13 -77 l7 -45 7 40 c5 22 12 57 16 78
4 20 7 37 5 37 -2 0 -12 -15 -22 -33z"/>
<path d="M2471 4044 c0 -11 3 -14 6 -6 3 7 2 16 -1 19 -3 4 -6 -2 -5 -13z"/>
<path d="M3132 4010 c0 -14 2 -19 5 -12 2 6 2 18 0 25 -3 6 -5 1 -5 -13z"/>
<path d="M2464 3940 c1 -66 8 -99 28 -148 22 -52 24 -67 14 -87 -6 -14 -14
-25 -18 -25 -9 0 29 -111 42 -124 6 -6 12 2 17 24 l6 34 13 -34 c7 -19 13 -28
13 -20 1 29 -37 156 -70 230 -23 54 -35 98 -40 155 l-7 80 2 -85z"/>
<path d="M1580 3942 c0 -29 7 -67 16 -83 21 -42 26 -32 9 16 -17 48 -19 72 -5
77 7 2 5 11 -4 23 -14 19 -15 16 -16 -33z"/>
<path d="M3729 3973 c-13 -16 -12 -17 4 -4 16 13 21 21 13 21 -2 0 -10 -8 -17
-17z"/>
<path d="M3121 3954 c0 -11 3 -14 6 -6 3 7 2 16 -1 19 -3 4 -6 -2 -5 -13z"/>
<path d="M2711 3924 c-1 -5 9 -38 20 -73 15 -44 24 -59 30 -50 12 20 11 31 -2
23 -9 -5 -10 1 -5 22 4 19 3 24 -2 15 -7 -10 -14 -2 -25 30 -8 24 -16 39 -16
33z"/>
<path d="M3076 3832 c-39 -94 -41 -99 -28 -87 12 11 65 146 59 151 -2 2 -16
-26 -31 -64z"/>
<path d="M2541 3854 c0 -11 3 -14 6 -6 3 7 2 16 -1 19 -3 4 -6 -2 -5 -13z"/>
<path d="M2761 3763 c0 -10 7 -34 15 -53 13 -32 14 -32 8 -5 -4 17 -6 40 -6
53 1 12 -3 22 -8 22 -6 0 -10 -8 -9 -17z"/>
<path d="M2430 3756 c0 -2 8 -10 18 -17 15 -13 16 -12 3 4 -13 16 -21 21 -21
13z"/>
<path d="M3813 3690 c0 -36 2 -50 4 -32 2 17 2 47 0 65 -2 17 -4 3 -4 -33z"/>
<path d="M3313 3713 c9 -2 23 -2 30 0 6 3 -1 5 -18 5 -16 0 -22 -2 -12 -5z"/>
<path d="M2217 3703 c-3 -5 18 -7 52 -5 54 4 61 2 97 -29 21 -19 31 -24 21
-13 -9 11 -14 24 -10 29 5 4 3 5 -4 2 -6 -4 -13 -2 -15 5 -5 14 -133 24 -141
11z"/>
<path d="M3737 3668 c65 -72 87 -122 88 -200 0 -57 3 -68 17 -68 9 0 20 5 24
12 5 7 2 9 -8 5 -13 -5 -17 7 -22 66 -3 40 -6 83 -6 97 0 17 -3 21 -8 12 -6
-9 -11 -6 -19 10 -15 33 -61 86 -87 100 -13 7 -5 -7 21 -34z"/>
<path d="M2298 3559 c-21 -5 -77 -30 -125 -56 -76 -41 -98 -48 -163 -53 l-75
-6 75 -12 c41 -7 81 -16 89 -20 7 -4 22 -31 33 -60 33 -90 126 -162 208 -162
19 0 69 9 109 20 80 22 103 19 138 -13 13 -11 26 -18 29 -14 8 7 -21 140 -47
216 -26 74 -87 137 -153 156 -55 17 -64 17 -118 4z m164 -106 c28 -25 23 -50
-9 -48 -42 3 -43 3 -43 28 0 40 21 48 52 20z m-145 -59 c9 -23 -13 -40 -32
-24 -12 10 -13 16 -4 26 15 18 28 18 36 -2z m-60 -106 c33 -37 73 -51 127 -45
l51 5 -35 -15 c-71 -31 -163 10 -203 90 -15 29 -16 40 -6 58 11 21 12 20 30
-25 10 -27 26 -57 36 -68z m183 18 c0 -2 -8 -10 -17 -17 -16 -13 -17 -12 -4 4
13 16 21 21 21 13z m90 -20 c0 -2 -8 -10 -17 -17 -16 -13 -17 -12 -4 4 13 16
21 21 21 13z"/>
<path d="M3128 3537 c-70 -43 -102 -108 -122 -252 -12 -87 -11 -95 6 -116 l19
-24 -7 27 c-8 37 31 63 83 54 110 -19 169 -18 209 2 65 33 101 89 111 172 5
44 9 50 42 63 l36 15 -33 1 c-18 1 -67 19 -108 41 -65 34 -85 40 -137 40 -47
0 -71 -6 -99 -23z m197 -63 c9 -9 14 -21 12 -28 -5 -15 -65 -20 -82 -6 -17 14
-9 37 13 43 32 9 41 7 57 -9z m59 -40 c9 -35 -10 -98 -40 -134 -68 -80 -177
-80 -234 0 -19 27 -19 29 -3 23 10 -3 24 -11 32 -17 12 -9 13 -8 6 4 -5 9 0 8
13 -4 12 -11 22 -15 22 -10 0 5 5 1 11 -9 7 -12 17 -16 32 -12 17 5 19 4 7 -4
-12 -9 -12 -11 2 -16 26 -10 93 33 117 75 23 42 27 99 9 133 -10 19 -9 20 4 9
9 -7 19 -24 22 -38z m-194 -20 c0 -8 -9 -14 -20 -14 -19 0 -28 28 -13 43 9 9
33 -12 33 -29z m-116 -90 c3 -8 2 -12 -4 -9 -6 3 -10 10 -10 16 0 14 7 11 14
-7z m27 -41 c13 -16 12 -17 -3 -4 -10 7 -18 15 -18 17 0 8 8 3 21 -13z"/>
<path d="M1804 3466 c-28 -19 -51 -41 -51 -50 0 -8 4 -13 9 -10 5 3 6 9 4 12
-2 4 21 24 51 45 31 20 52 37 47 37 -5 0 -32 -15 -60 -34z"/>
<path d="M3791 3444 c0 -11 3 -14 6 -6 3 7 2 16 -1 19 -3 4 -6 -2 -5 -13z"/>
<path d="M3478 3443 c6 -2 18 -2 25 0 6 3 1 5 -13 5 -14 0 -19 -2 -12 -5z"/>
<path d="M2707 3319 c-21 -50 -40 -105 -43 -122 -4 -23 0 -18 14 18 11 28 32
78 46 113 15 35 26 67 24 72 -2 5 -20 -32 -41 -81z"/>
<path d="M1617 3375 c-16 -14 -34 -22 -45 -19 -12 4 -10 -1 7 -16 25 -22 21
-34 -14 -43 -13 -3 -9 -5 13 -6 17 0 32 -5 32 -10 0 -5 -10 -7 -22 -4 -21 4
-21 3 3 -13 16 -10 33 -37 44 -68 25 -72 104 -224 138 -268 l29 -36 -35 -89
c-19 -48 -42 -112 -51 -140 -13 -37 -30 -63 -59 -88 -32 -28 -37 -35 -21 -35
11 0 29 7 40 15 31 23 32 18 11 -42 -13 -37 -22 -100 -27 -173 -5 -91 -11
-124 -29 -158 -27 -52 -85 -119 -126 -144 -29 -17 -29 -18 -6 -18 14 0 33 7
42 16 15 13 13 6 -7 -35 -13 -29 -32 -84 -40 -124 -29 -135 -33 -144 -74 -181
-22 -19 -52 -38 -67 -42 -53 -11 -59 -14 -44 -23 11 -7 10 -11 -5 -20 -29 -16
-10 -13 45 8 27 11 51 18 53 16 3 -3 17 9 33 25 16 17 34 30 41 30 7 0 16 34
23 90 13 102 57 235 102 306 24 37 33 44 40 33 7 -11 8 -9 7 6 -2 11 2 20 7
20 6 0 10 -49 9 -130 -1 -101 -5 -140 -19 -175 -15 -37 -19 -77 -20 -224 -2
-161 -4 -181 -21 -193 -10 -7 -15 -13 -11 -13 4 0 2 -10 -4 -22 -6 -12 -13
-49 -16 -82 -2 -33 -10 -70 -17 -81 -13 -20 -14 -73 -1 -138 5 -26 4 -29 -5
-14 -9 14 -15 15 -31 6 -11 -5 -19 -18 -17 -28 2 -9 -5 -29 -15 -44 -10 -15
-16 -31 -13 -35 3 -5 -4 -21 -15 -38 -10 -16 -19 -46 -19 -66 0 -20 -5 -40
-10 -43 -6 -4 -8 -11 -5 -16 4 -5 2 -9 -4 -9 -11 0 -33 35 -26 42 2 2 -9 51
-25 108 -17 56 -33 142 -37 189 -5 71 -8 81 -15 56 -13 -45 0 -141 32 -235 15
-47 27 -86 25 -88 -6 -6 -63 146 -74 196 -18 89 -11 160 33 307 4 11 -5 -2
-19 -30 -13 -27 -25 -56 -25 -64 0 -8 -2 -12 -5 -9 -13 13 29 150 61 205 l35
58 -36 -35 -37 -35 22 45 c13 25 33 59 46 76 32 42 30 45 -13 22 -21 -10 -51
-17 -66 -15 -43 6 -42 -11 1 -20 l39 -8 -30 -63 c-20 -41 -43 -72 -66 -89 -33
-23 -34 -25 -9 -19 14 3 34 9 44 13 14 5 16 3 10 -13 -34 -89 -18 -314 34
-448 l11 -29 -68 6 c-198 16 -418 162 -459 304 -16 56 -13 137 7 190 7 20 5
23 -14 23 -35 0 -113 -54 -142 -98 -54 -83 -70 -202 -40 -315 57 -219 275
-403 542 -457 55 -11 129 -20 162 -20 59 0 61 -1 51 -20 -8 -16 -21 -20 -58
-20 -40 0 -242 -24 -390 -46 -27 -4 -46 -13 -50 -23 -3 -9 -10 -19 -16 -24 -6
-4 7 -7 29 -7 97 -1 322 -11 342 -15 15 -4 20 -10 17 -20 -4 -8 -10 -12 -15
-9 -13 8 -28 -38 -19 -56 10 -19 4 -51 -10 -60 -13 -8 91 -23 310 -45 80 -8
156 -17 170 -20 92 -18 355 -36 525 -36 190 0 305 9 387 31 24 7 45 7 62 0
117 -44 718 -30 850 20 14 5 84 19 154 31 70 11 131 24 135 28 5 5 2 15 -5 22
-7 8 -13 25 -13 39 1 14 -3 31 -8 38 -6 7 -6 12 0 12 13 0 -3 104 -22 140 -23
44 -72 79 -135 97 l-59 16 39 39 c22 21 45 48 51 61 8 15 -2 9 -30 -18 -22
-21 -41 -34 -41 -29 0 6 10 19 21 30 33 30 97 128 135 207 39 82 64 188 63
262 l-2 50 -9 -55 c-24 -140 -33 -168 -78 -258 -27 -54 -71 -127 -99 -163 -27
-37 -48 -69 -45 -72 3 -3 -2 -16 -10 -30 -14 -21 -27 -25 -90 -30 -40 -4 -80
-9 -90 -13 -34 -13 -15 22 27 48 23 15 59 43 81 62 21 20 44 36 50 36 15 0 76
63 105 110 l23 35 -24 -27 c-13 -16 -29 -28 -36 -28 -7 0 -10 -4 -7 -10 5 -9
-14 -15 -37 -11 -3 0 -23 -20 -43 -44 -43 -53 -162 -148 -152 -121 4 10 7 30
7 46 0 16 6 35 13 42 7 7 21 27 31 43 l19 30 -28 -25 -27 -25 7 25 c11 37 50
119 80 170 18 30 20 37 6 20 -11 -14 -21 -29 -21 -34 0 -5 -2 -7 -5 -4 -3 3
24 66 59 141 61 127 113 273 103 283 -3 3 -8 -8 -11 -23 -4 -15 -52 -120 -106
-233 -116 -241 -150 -346 -150 -465 0 -97 6 -117 54 -180 48 -62 61 -109 47
-162 -16 -60 -34 -67 -26 -10 4 27 2 60 -5 81 -12 38 -80 106 -107 106 -10 0
-4 -8 17 -22 48 -33 72 -70 77 -120 9 -75 -24 -111 -109 -123 l-48 -7 16 43
c9 26 13 57 9 76 -10 53 -20 45 -17 -13 4 -63 -16 -104 -50 -104 -20 0 -20 1
-4 19 34 38 29 139 -9 171 -13 11 -13 8 -4 -20 6 -17 9 -54 6 -83 -7 -74 -36
-97 -125 -97 -84 0 -137 15 -157 43 -30 43 -14 123 41 207 9 14 -2 5 -25 -20
-58 -63 -72 -124 -45 -194 6 -17 4 -18 -22 -12 -16 4 -42 21 -59 37 -26 26
-30 36 -29 83 0 36 9 73 28 115 18 40 36 113 51 199 24 141 85 382 129 509 14
40 21 73 17 73 -4 0 -20 -13 -36 -30 -16 -16 -30 -28 -32 -26 -6 6 27 87 42
102 9 9 37 53 62 98 26 44 74 108 108 142 50 50 70 63 120 77 67 18 125 12
172 -18 l28 -18 -24 27 c-34 36 -90 50 -152 37 -76 -17 -127 -47 -208 -125
-77 -73 -76 -59 1 39 l40 50 -50 -54 c-28 -29 -56 -67 -62 -85 -7 -17 -19 -49
-28 -71 l-17 -40 -6 50 c-5 45 -6 46 -7 12 -2 -29 -6 -37 -18 -35 -11 2 -30
-24 -63 -87 -25 -49 -65 -115 -88 -145 -36 -48 -73 -118 -123 -235 l-13 -30
-9 33 c-10 37 -39 88 -124 217 -45 68 -63 106 -73 155 -8 36 -20 90 -27 120
l-12 55 -2 -60 -1 -60 -18 51 c-38 104 -90 180 -151 216 -19 12 -37 23 -39 25
-2 1 8 12 22 23 24 19 46 75 34 87 -3 2 -13 -11 -22 -31 -13 -26 -31 -42 -70
-61 -68 -32 -76 -45 -27 -42 21 1 39 -2 40 -8 8 -62 24 -121 37 -139 97 -131
169 -271 178 -346 l6 -45 -18 35 c-22 46 -53 92 -57 87 -2 -2 9 -33 25 -68 37
-84 106 -344 130 -494 10 -66 30 -155 45 -198 14 -42 26 -92 26 -111 0 -41
-30 -80 -71 -95 -31 -11 -31 -10 -16 12 35 53 28 117 -17 172 -16 19 -16 18
-1 -14 20 -40 23 -108 6 -139 -19 -35 -69 -55 -142 -56 -73 -1 -109 18 -109
58 0 12 -5 28 -11 36 -8 11 -9 1 -6 -37 4 -51 3 -53 -20 -53 -14 0 -37 13 -54
29 -41 41 -41 107 1 186 34 64 13 56 -26 -10 -36 -62 -42 -125 -16 -169 18
-30 19 -36 6 -36 -9 0 -29 14 -46 30 -29 29 -30 34 -26 95 4 69 -5 77 -22 17
-10 -40 -1 -91 21 -118 9 -11 8 -14 -6 -14 -26 0 -75 55 -77 87 -4 86 13 128
71 164 52 33 27 42 -26 9 -49 -29 -76 -91 -71 -158 5 -53 4 -54 -10 -27 -22
42 -9 120 28 173 40 57 54 117 47 210 -7 97 -30 171 -121 386 -124 292 -158
415 -158 577 0 92 4 116 31 194 17 49 30 105 30 125 -1 28 -3 24 -9 -19 -5
-29 -13 -58 -18 -63 -7 -7 -8 2 -1 28 4 22 9 71 10 109 2 64 3 66 10 30 12
-61 3 72 -12 165 -6 41 -9 104 -6 140 7 87 42 222 73 279 30 56 31 70 3 45
-12 -10 -20 -14 -18 -9 2 6 13 34 23 63 11 29 23 52 28 52 4 0 5 7 2 15 -5 11
-2 13 10 9 19 -7 19 -3 2 -52 -8 -22 -11 -44 -8 -48 4 -4 1 -4 -5 0 -19 11
-16 -8 6 -32 10 -12 22 -18 26 -14 4 4 2 -4 -5 -18 -8 -14 -14 -25 -14 -25 -1
0 17 -16 39 -36 36 -34 38 -38 25 -55 -14 -17 -13 -18 1 -7 9 7 19 9 24 5 4
-4 2 4 -5 17 -6 13 -8 21 -3 18 5 -4 32 17 59 45 27 27 72 68 99 90 45 37 55
48 40 48 -3 0 -21 7 -41 15 -34 14 -39 14 -73 -7 -20 -12 -63 -47 -95 -78 -47
-43 -55 -48 -36 -21 12 18 50 53 84 78 34 25 62 48 63 51 1 4 -19 20 -45 37
-57 36 -122 95 -165 148 -29 37 -29 39 -6 27 18 -9 15 -3 -16 29 -21 22 -33
41 -25 41 9 0 8 6 -6 21 -10 11 -19 26 -19 32 -1 20 -35 127 -41 127 -8 0 7
-61 22 -92 8 -16 12 -28 10 -28 -11 0 -37 62 -50 121 -11 46 -12 75 -5 112 5
28 8 51 7 53 -2 1 -15 -8 -31 -21z m243 -542 c-8 -3 -22 -12 -32 -20 -12 -11
-18 -11 -24 -2 -4 7 -3 10 3 6 6 -4 16 0 23 8 7 8 20 15 29 14 13 0 14 -1 1
-6z m-176 -1560 c13 -38 42 -110 64 -160 22 -51 39 -93 36 -93 -6 0 -69 129
-98 203 -28 71 -57 198 -55 245 0 15 7 -8 15 -50 7 -43 25 -108 38 -145z
m-899 35 c0 -97 2 -107 34 -170 18 -37 40 -73 49 -80 12 -11 12 -7 -2 22 -17
34 -17 34 1 14 33 -38 107 -91 171 -123 67 -34 205 -71 263 -71 29 0 38 -5 48
-26 l12 -27 -92 8 c-108 8 -175 26 -249 67 l-55 30 33 -34 33 -35 -38 -6 c-21
-4 -61 -13 -90 -21 -97 -27 -175 21 -235 142 -30 61 -33 75 -33 162 0 85 3
100 27 141 29 48 90 109 111 109 9 0 12 -29 12 -102z m842 70 c-3 -8 -6 -5 -6
6 -1 11 2 17 5 13 3 -3 4 -12 1 -19z m1293 -44 c0 -14 -4 -23 -9 -20 -5 3 -7
15 -4 26 7 28 13 25 13 -6z m-13 -56 c-3 -8 -6 -5 -6 6 -1 11 2 17 5 13 3 -3
4 -12 1 -19z m-500 -95 c-3 -10 -5 -4 -5 12 0 17 2 24 5 18 2 -7 2 -21 0 -30z
m-850 5 c-3 -8 -6 -5 -6 6 -1 11 2 17 5 13 3 -3 4 -12 1 -19z m1364 -75 c-12
-20 -14 -14 -5 12 4 9 9 14 11 11 3 -2 0 -13 -6 -23z m-1338 -3 c3 -11 1 -18
-4 -14 -5 3 -9 12 -9 20 0 20 7 17 13 -6z m21 -46 c3 -8 2 -12 -4 -9 -6 3 -10
10 -10 16 0 14 7 11 14 -7z m128 -229 c2 3 5 -2 5 -10 0 -19 1 -20 -28 12 -17
20 -18 23 -3 10 11 -9 23 -15 26 -12z m79 -32 c13 -16 12 -17 -3 -4 -17 13
-22 21 -14 21 2 0 10 -8 17 -17z m-296 -151 c-3 -3 -11 0 -18 7 -9 10 -8 11 6
5 10 -3 15 -9 12 -12z m196 -74 l38 -21 -38 -37 c-44 -43 -63 -102 -54 -170
l5 -45 -27 27 c-22 21 -29 38 -33 82 -4 46 0 62 22 103 l27 48 -30 -30 c-55
-52 -64 -153 -19 -210 18 -24 18 -25 1 -25 -46 0 -93 22 -108 50 -19 37 -19
111 0 157 15 36 15 36 -4 19 -44 -40 -53 -155 -16 -196 21 -23 8 -26 -22 -5
-26 19 -45 92 -34 132 5 17 17 43 27 59 l18 29 -27 -24 c-32 -29 -51 -89 -42
-134 l6 -32 -15 25 c-44 73 17 179 122 210 15 5 58 9 96 9 53 1 77 -4 107 -21z
m1940 -9 c81 -45 112 -135 74 -209 -21 -41 -25 -37 -9 9 18 52 8 103 -28 143
l-29 33 22 -32 c32 -46 37 -128 10 -170 -25 -40 -45 -45 -31 -7 15 38 12 92
-6 130 -23 47 -37 53 -18 7 20 -47 13 -118 -13 -144 -19 -19 -19 -18 -15 46 4
58 1 70 -22 105 -33 50 -42 52 -16 3 22 -41 27 -121 10 -154 -6 -11 -21 -19
-36 -19 -17 0 -23 4 -18 12 4 6 -3 4 -17 -5 -43 -31 -59 -23 -59 31 0 39 -9
62 -46 125 -25 42 -44 83 -41 91 16 42 216 45 288 5z m-1933 -86 c-13 -26 -18
-50 -15 -75 4 -28 1 -38 -9 -38 -26 0 -10 96 22 131 24 27 24 24 2 -18z"/>
<path d="M3819 3377 c8 -10 20 -16 28 -13 8 3 11 1 8 -4 -3 -6 -19 -10 -36
-10 -33 0 -35 -5 -14 -26 13 -13 18 -12 40 10 28 28 37 68 10 46 -12 -10 -18
-10 -32 1 -16 13 -17 12 -4 -4z"/>
<path d="M3715 3310 c10 -11 20 -20 23 -20 3 0 -3 9 -13 20 -10 11 -20 20 -23
20 -3 0 3 -9 13 -20z"/>
<path d="M3818 3289 l-33 -31 38 27 c20 15 37 29 37 31 0 10 -12 2 -42 -27z"/>
<path d="M2010 3286 c0 -2 8 -10 18 -17 15 -13 16 -12 3 4 -13 16 -21 21 -21
13z"/>
<path d="M3789 3237 c-14 -12 -29 -31 -33 -41 -5 -16 -4 -17 9 -6 8 7 15 9 15
6 0 -9 -73 -118 -112 -168 -17 -21 -27 -38 -25 -38 3 0 -19 -26 -48 -57 -84
-90 -53 -77 38 17 45 46 73 76 61 67 -34 -28 -37 -19 -6 21 57 73 104 151 97
162 -4 6 3 22 16 36 28 30 22 30 -12 1z"/>
<path d="M2060 3206 c0 -2 8 -10 18 -17 15 -13 16 -12 3 4 -13 16 -21 21 -21
13z"/>
<path d="M2195 3180 c11 -5 29 -8 40 -8 16 0 15 2 -5 8 -34 11 -60 11 -35 0z"/>
<path d="M2273 3163 c9 -2 23 -2 30 0 6 3 -1 5 -18 5 -16 0 -22 -2 -12 -5z"/>
<path d="M2720 3123 c0 -7 -11 -13 -25 -13 -14 0 -25 -4 -25 -10 0 -5 -7 -10
-15 -10 -13 0 -13 -3 -3 -20 10 -16 10 -24 0 -40 -11 -18 -9 -24 12 -45 13
-13 35 -27 49 -30 31 -8 90 -79 85 -103 -8 -45 -231 -151 -293 -139 -17 3 -25
0 -25 -10 0 -8 5 -11 10 -8 6 3 10 2 10 -3 0 -20 124 9 196 46 58 31 74 36 79
24 4 -11 8 -12 20 -2 11 9 22 6 52 -14 36 -25 38 -25 41 -7 3 19 5 19 50 -5
51 -27 135 -41 177 -30 39 10 25 17 -37 20 -29 2 -73 12 -98 23 -53 24 -129
78 -136 97 -7 17 60 106 90 121 29 15 52 63 37 78 -9 9 -14 8 -21 -3 -8 -12
-11 -13 -19 -1 -9 15 -75 30 -134 31 -31 0 -41 5 -57 33 -11 17 -20 26 -20 20z
m10 -57 c0 -2 -7 -7 -16 -10 -8 -3 -12 -2 -9 4 6 10 25 14 25 6z m63 -23 c-7
-2 -21 -2 -30 0 -10 3 -4 5 12 5 17 0 24 -2 18 -5z m121 -12 c3 -4 -6 -6 -19
-3 -14 2 -25 6 -25 8 0 8 39 4 44 -5z"/>
<path d="M2080 3116 c0 -15 73 -46 106 -45 l39 1 -42 8 c-23 5 -55 16 -72 25
-17 8 -31 14 -31 11z"/>
<path d="M2200 3100 c8 -5 24 -10 34 -10 26 0 18 6 -19 14 -22 5 -26 4 -15 -4z"/>
<path d="M3418 3093 c6 -2 18 -2 25 0 6 3 1 5 -13 5 -14 0 -19 -2 -12 -5z"/>
<path d="M1958 3074 c30 -57 96 -84 199 -83 116 1 148 17 38 18 -110 1 -159
14 -209 53 -27 22 -35 25 -28 12z"/>
<path d="M1658 3043 c6 -2 18 -2 25 0 6 3 1 5 -13 5 -14 0 -19 -2 -12 -5z"/>
<path d="M1590 3030 c-11 -8 -7 -9 15 -4 37 8 45 14 19 14 -10 0 -26 -5 -34
-10z"/>
<path d="M1540 3010 c-8 -5 -10 -10 -5 -10 6 0 17 5 25 10 8 5 11 10 5 10 -5
0 -17 -5 -25 -10z"/>
<path d="M2470 2980 c0 -5 6 -10 14 -10 8 0 18 5 21 10 3 6 -3 10 -14 10 -12
0 -21 -4 -21 -10z"/>
<path d="M2535 2980 c3 -5 10 -10 16 -10 5 0 9 5 9 10 0 6 -7 10 -16 10 -8 0
-12 -4 -9 -10z"/>
<path d="M3148 2983 c6 -2 18 -2 25 0 6 3 1 5 -13 5 -14 0 -19 -2 -12 -5z"/>
<path d="M3203 2983 c9 -2 23 -2 30 0 6 3 -1 5 -18 5 -16 0 -22 -2 -12 -5z"/>
<path d="M3251 2986 c2 -2 72 -6 154 -8 93 -4 124 -3 80 2 -74 8 -241 13 -234
6z"/>
<path d="M2385 2970 c17 -4 39 -8 50 -8 16 0 15 2 -5 8 -14 4 -36 8 -50 8 -22
0 -22 -1 5 -8z"/>
<path d="M2273 2963 c9 -2 23 -2 30 0 6 3 -1 5 -18 5 -16 0 -22 -2 -12 -5z"/>
<path d="M3568 2963 c6 -2 18 -2 25 0 6 3 1 5 -13 5 -14 0 -19 -2 -12 -5z"/>
<path d="M3090 2920 c0 -5 7 -10 15 -10 8 0 15 5 15 10 0 6 -7 10 -15 10 -8 0
-15 -4 -15 -10z"/>
<path d="M3233 2919 c54 -6 138 -20 188 -33 49 -12 86 -19 82 -15 -20 20 -176
51 -268 54 l-100 4 98 -10z"/>
<path d="M2320 2903 c-36 -9 -59 -18 -52 -20 7 -3 46 3 86 12 41 9 86 13 100
9 16 -4 26 -2 26 5 0 16 -82 12 -160 -6z"/>
<path d="M2508 2908 c9 -9 15 -9 24 0 9 9 7 12 -12 12 -19 0 -21 -3 -12 -12z"/>
<path d="M2580 2910 c0 -5 5 -10 10 -10 6 0 10 5 10 10 0 6 -4 10 -10 10 -5 0
-10 -4 -10 -10z"/>
<path d="M3038 2913 c7 -3 16 -2 19 1 4 3 -2 6 -13 5 -11 0 -14 -3 -6 -6z"/>
<path d="M2180 2850 c8 -5 20 -10 25 -10 6 0 3 5 -5 10 -8 5 -19 10 -25 10 -5
0 -3 -5 5 -10z"/>
<path d="M2499 2843 c-12 -15 -12 -16 4 -10 10 4 23 7 28 7 6 0 7 5 4 10 -9
15 -21 12 -36 -7z"/>
<path d="M3058 2853 c7 -3 16 -2 19 1 4 3 -2 6 -13 5 -11 0 -14 -3 -6 -6z"/>
<path d="M3140 2856 c0 -2 15 -9 33 -15 29 -10 30 -9 13 4 -18 14 -46 20 -46
11z"/>
<path d="M2447 2844 c-11 -11 3 -24 18 -18 8 4 12 10 9 15 -6 11 -18 12 -27 3z"/>
<path d="M2319 2806 c-32 -17 -66 -40 -78 -50 -12 -11 -21 -14 -21 -8 0 28
-102 -22 -192 -94 -72 -58 -103 -95 -113 -137 -6 -23 -4 -27 16 -29 13 0 29
-2 34 -3 6 -2 17 -3 26 -4 8 0 25 -10 36 -21 24 -21 35 -14 48 30 12 39 65
141 91 176 13 17 20 35 16 39 -4 5 -2 5 4 2 13 -7 37 16 29 26 -3 4 -2 5 1 2
4 -2 21 5 38 18 17 12 58 36 91 54 33 18 53 32 45 32 -8 -1 -40 -15 -71 -33z"/>
<path d="M3496 2819 l-26 -21 46 -51 c54 -59 88 -129 115 -236 23 -91 23 -97
2 -80 -13 11 -12 6 4 -21 12 -19 32 -42 45 -50 l23 -14 -23 26 c-17 19 -25 41
-28 82 -5 80 -38 169 -95 259 -27 43 -49 81 -49 84 0 4 7 15 17 25 22 25 2 23
-31 -3z"/>
<path d="M2588 2803 c7 -3 16 -2 19 1 4 3 -2 6 -13 5 -11 0 -14 -3 -6 -6z"/>
<path d="M2520 2786 c0 -9 30 -14 35 -6 4 6 -3 10 -14 10 -12 0 -21 -2 -21 -4z"/>
<path d="M2446 2771 c-4 -5 3 -7 14 -4 23 6 26 13 6 13 -8 0 -17 -4 -20 -9z"/>
<path d="M2385 2740 c-21 -22 -25 -30 -13 -30 9 0 23 14 32 30 8 17 13 30 12
30 -1 0 -15 -13 -31 -30z"/>
<path d="M2423 2738 c-18 -23 -25 -39 -16 -37 35 6 46 -15 12 -24 -18 -5 -19
-8 -8 -29 11 -21 11 -22 -4 -9 -15 12 -19 9 -35 -30 -12 -27 -21 -38 -26 -31
-4 7 -3 12 2 12 5 0 12 8 15 18 2 9 8 26 13 36 5 13 4 17 -3 13 -6 -4 -19 -4
-28 -1 -14 6 -14 8 2 28 15 18 14 18 -9 -2 -20 -18 -30 -21 -44 -13 -11 5 -33
14 -51 20 -29 9 -35 7 -57 -20 -38 -45 -98 -156 -100 -184 0 -14 -4 -25 -8
-25 -20 0 -5 -25 15 -26 51 -4 72 -9 79 -19 5 -5 8 -1 8 10 0 28 54 139 79
164 12 12 19 21 16 21 -3 0 3 9 12 20 18 21 33 19 15 -2 -14 -17 -40 -110 -52
-183 l-9 -60 5 67 c2 36 9 80 15 98 6 17 9 33 7 36 -8 7 -55 -88 -71 -143
l-16 -52 46 -7 c82 -12 213 1 281 29 71 28 133 67 126 79 -3 4 7 3 21 -2 38
-15 50 -12 34 6 -12 15 -10 16 21 9 19 -5 63 -8 98 -8 54 0 75 7 160 49 53 26
104 48 112 49 8 0 15 6 15 14 0 8 10 15 23 16 25 2 49 21 40 31 -4 3 -66 -22
-140 -57 -109 -51 -144 -63 -199 -67 -63 -4 -132 9 -207 40 -15 6 -38 13 -52
15 -53 8 -133 35 -123 41 5 4 14 26 20 49 9 36 8 44 -7 58 -14 12 -19 13 -27
3z m9 -20 c-7 -7 -12 -8 -12 -2 0 14 12 26 19 19 2 -3 -1 -11 -7 -17z m-85
-190 c-3 -7 -5 -2 -5 12 0 14 2 19 5 13 2 -7 2 -19 0 -25z m-10 -80 c-2 -13
-4 -5 -4 17 -1 22 1 32 4 23 2 -10 2 -28 0 -40z"/>
<path d="M3166 2738 c3 -5 10 -6 15 -3 13 9 11 12 -6 12 -8 0 -12 -4 -9 -9z"/>
<path d="M3190 2721 c0 -6 4 -13 10 -16 6 -3 7 1 4 9 -7 18 -14 21 -14 7z"/>
<path d="M3228 2699 c-32 -17 -58 -35 -58 -40 0 -15 15 -10 40 14 14 12 26 21
27 20 8 -8 31 0 53 17 38 30 4 24 -62 -11z"/>
<path d="M3330 2716 c0 -2 8 -10 18 -17 15 -13 16 -12 3 4 -13 16 -21 21 -21
13z"/>
<path d="M2309 2683 c-13 -16 -12 -17 4 -4 16 13 21 21 13 21 -2 0 -10 -8 -17
-17z"/>
<path d="M3019 2523 c-13 -15 -17 -22 -8 -15 9 6 19 10 22 7 4 -3 5 -2 2 2 -3
3 0 12 6 20 21 25 3 13 -22 -14z"/>
<path d="M2800 2357 c0 -65 13 -91 80 -161 88 -92 105 -147 64 -213 -7 -11
-27 -47 -44 -78 -17 -31 -38 -69 -48 -83 -16 -26 -16 -27 3 -12 31 23 42 39
85 124 62 122 55 169 -40 261 -60 58 -85 104 -89 160 -4 56 -11 58 -11 2z"/>
<path d="M3602 2353 c22 -25 47 -76 58 -120 l10 -38 -4 42 c-4 45 -49 133 -68
133 -7 0 -5 -7 4 -17z"/>
<path d="M1835 2340 c21 -40 61 -84 98 -111 31 -22 51 -29 88 -29 26 0 51 5
55 11 4 8 -3 9 -24 4 -46 -10 -118 26 -176 88 -27 29 -46 45 -41 37z"/>
<path d="M3666 2334 c4 -11 10 -23 13 -29 3 -5 5 -23 5 -40 -1 -29 -1 -29 3
-2 l4 27 35 -26 c53 -41 47 -25 -13 35 -29 29 -50 45 -47 35z"/>
<path d="M3574 2254 c5 -10 11 -27 13 -36 3 -10 10 -18 15 -18 6 0 8 -6 5 -13
-2 -6 2 -18 9 -25 20 -19 18 3 -5 54 -19 42 -52 77 -37 38z"/>
<path d="M2700 2245 c0 -8 2 -15 4 -15 2 0 6 7 10 15 3 8 1 15 -4 15 -6 0 -10
-7 -10 -15z"/>
<path d="M1919 2200 c73 -63 157 -79 202 -39 21 18 21 19 4 13 -41 -17 -100
-8 -170 24 l-70 32 34 -30z"/>
<path d="M2711 2204 c0 -11 3 -14 6 -6 3 7 2 16 -1 19 -3 4 -6 -2 -5 -13z"/>
<path d="M3370 2145 c0 -12 71 -35 107 -34 70 1 76 15 6 15 -37 0 -78 6 -90
12 -13 7 -23 10 -23 7z"/>
<path d="M2275 2130 c-4 -6 -24 -19 -46 -31 -43 -22 -212 -37 -233 -21 -15 12
-46 23 -46 17 0 -3 15 -14 33 -25 36 -23 121 -27 190 -9 36 9 136 77 115 79
-4 0 -10 -5 -13 -10z"/>
<path d="M2021 2108 c25 -21 67 -23 92 -4 9 7 17 15 17 17 0 2 -30 4 -66 4
-63 0 -65 0 -43 -17z"/>
<path d="M3632 2040 c2 -162 -2 -228 -13 -205 -7 16 -8 12 -4 -14 3 -18 5 -58
5 -89 0 -30 2 -53 5 -50 6 6 19 104 18 140 0 15 3 25 8 23 4 -3 5 18 3 47 -3
29 -9 96 -14 148 l-9 95 1 -95z"/>
<path d="M3324 2095 c11 -8 38 -15 60 -16 l41 -1 -45 -10 c-44 -9 -135 -6
-175 6 -11 4 0 -3 25 -15 69 -34 187 -32 263 3 31 15 57 29 57 32 0 2 -43 3
-95 1 -53 -2 -108 0 -123 5 -25 10 -26 9 -8 -5z m163 -11 c-3 -3 -12 -4 -19
-1 -8 3 -5 6 6 6 11 1 17 -2 13 -5z"/>
<path d="M2319 2063 l-24 -28 28 24 c25 23 32 31 24 31 -2 0 -14 -12 -28 -27z"/>
<path d="M2883 2050 c0 -25 2 -35 4 -22 2 12 2 32 0 45 -2 12 -4 2 -4 -23z"/>
<path d="M3025 2031 c0 -25 -8 -61 -17 -78 -9 -18 -13 -35 -9 -38 11 -6 29 37
37 87 6 37 8 39 18 19 7 -12 15 -19 19 -15 3 4 14 -7 24 -25 20 -35 40 -43 22
-8 -17 32 -45 66 -71 86 l-23 18 0 -46z"/>
<path d="M2788 2012 c15 -56 15 -64 -5 -143 -12 -46 -24 -93 -27 -104 -4 -11
1 -4 10 15 41 87 53 179 33 241 -20 59 -27 53 -11 -9z"/>
<path d="M2133 2043 c-43 -4 -56 -16 -29 -26 8 -3 32 3 53 13 21 11 34 19 28
18 -5 -1 -29 -3 -52 -5z"/>
<path d="M3195 2026 c22 -15 44 -19 85 -17 38 2 5 17 -55 25 -45 6 -48 5 -30
-8z"/>
<path d="M2871 1984 c0 -11 3 -14 6 -6 3 7 2 16 -1 19 -3 4 -6 -2 -5 -13z"/>
<path d="M3224 1992 c7 -6 14 -7 111 -17 43 -4 46 -3 20 5 -35 12 -140 22
-131 12z"/>
<path d="M3663 1940 c0 -36 2 -50 4 -32 2 17 2 47 0 65 -2 17 -4 3 -4 -33z"/>
<path d="M2555 1945 c3 -27 28 -117 56 -200 28 -82 59 -188 69 -235 11 -49 19
-72 19 -54 1 18 -10 74 -23 125 -14 51 -22 97 -20 101 3 4 1 8 -5 8 -6 0 -8 7
-5 15 4 8 1 15 -6 15 -6 0 -9 4 -6 9 3 5 -6 35 -21 67 -15 33 -35 91 -45 129
-17 65 -18 67 -13 20z"/>
<path d="M1946 1941 c-21 -22 -66 -53 -100 -70 -38 -20 -50 -29 -31 -25 76 17
135 56 160 105 9 16 14 29 12 29 -1 0 -20 -18 -41 -39z"/>
<path d="M2290 1930 c8 -5 27 -10 41 -10 25 0 26 -2 21 -49 -6 -61 18 -135 58
-182 l30 -34 -32 63 c-21 42 -33 82 -36 122 l-4 58 38 21 c42 22 41 27 0 11
-17 -6 -26 -6 -26 0 0 6 -24 10 -52 10 -38 0 -49 -3 -38 -10z"/>
<path d="M2080 1882 c-14 -13 -54 -39 -90 -58 -44 -24 -56 -33 -35 -29 47 9
116 48 138 77 27 36 19 41 -13 10z"/>
<path d="M3270 1856 c0 -9 5 -14 10 -11 6 3 13 -1 16 -9 3 -9 10 -14 14 -11 5
3 11 1 15 -5 3 -5 18 -10 33 -9 24 0 23 2 -12 15 -22 8 -48 22 -58 31 -17 15
-18 15 -18 -1z"/>
<path d="M2430 1839 c-1 -17 36 -87 86 -164 88 -135 142 -266 164 -393 8 -47
8 -47 9 -9 3 118 -65 296 -162 423 -30 39 -64 88 -75 110 -12 21 -21 36 -22
33z"/>
<path d="M3235 1809 c-11 -16 3 -57 27 -79 16 -15 35 -20 75 -20 67 0 69 16 3
22 -57 6 -104 40 -97 70 6 20 2 23 -8 7z"/>
<path d="M2094 1789 c-37 -41 -137 -77 -219 -80 -35 -1 -32 -3 20 -10 83 -13
147 3 191 48 19 18 34 40 34 48 0 20 -3 19 -26 -6z"/>
<path d="M2125 1771 c-10 -33 -56 -71 -104 -85 l-46 -15 53 0 c46 -1 58 3 83
28 19 20 29 40 29 60 0 35 -6 40 -15 12z"/>
<path d="M3091 1744 c-2 -53 59 -85 90 -48 12 15 11 16 -9 10 -35 -11 -61 2
-71 37 l-9 32 -1 -31z"/>
<path d="M3640 1699 c-1 -49 135 -189 183 -189 18 0 15 4 -12 17 -46 23 -138
114 -156 155 -8 18 -14 26 -15 17z"/>
<path d="M3631 1628 c0 -27 4 -48 9 -48 11 0 11 21 0 65 -7 27 -8 25 -9 -17z"/>
<path d="M2788 1638 c-20 -31 -58 -135 -57 -156 0 -9 8 8 18 38 10 30 27 74
40 98 23 45 23 56 -1 20z"/>
<path d="M1991 1554 c-31 -39 -45 -61 -32 -55 31 17 107 121 88 121 -2 0 -27
-30 -56 -66z"/>
<path d="M3622 1535 c0 -16 2 -22 5 -12 2 9 2 23 0 30 -3 6 -5 -1 -5 -18z"/>
<path d="M3780 1487 c32 -33 67 -59 85 -62 l30 -7 -31 20 c-18 11 -35 25 -38
31 -4 6 -28 25 -54 42 l-47 32 55 -56z"/>
<path d="M2720 1438 c0 -9 -4 -18 -9 -20 -5 -2 -7 -41 -3 -93 l7 -90 6 105 c4
58 5 107 3 109 -2 2 -4 -3 -4 -11z"/>
<path d="M3773 1423 c28 -31 48 -109 46 -183 -1 -32 -2 -31 -9 11 -8 44 -25
89 -35 89 -3 0 0 -11 5 -25 5 -14 14 -53 20 -87 15 -95 30 -96 30 -3 -1 44 -5
99 -9 122 -7 38 -6 42 13 45 16 3 9 10 -34 32 l-55 28 28 -29z"/>
<path d="M2501 1308 c-1 -24 51 -185 56 -172 2 6 -10 51 -26 100 -16 49 -29
81 -30 72z"/>
<path d="M1486 1258 c-8 -32 -6 -129 3 -153 4 -11 7 23 7 78 -1 53 -2 97 -2
97 -1 0 -4 -10 -8 -22z"/>
<path d="M2590 1144 c0 -43 5 -86 11 -94 9 -13 10 -12 5 3 -3 11 0 17 9 17 8
0 15 3 15 8 -1 20 -29 134 -34 139 -3 4 -6 -29 -6 -73z"/>
<path d="M2701 1204 c0 -11 3 -14 6 -6 3 7 2 16 -1 19 -3 4 -6 -2 -5 -13z"/>
<path d="M3205 1102 c-5 -4 -17 -16 -25 -27 -11 -15 -7 -14 13 4 24 22 32 31
25 31 -2 0 -7 -4 -13 -8z"/>
<path d="M3040 1013 l-65 -68 68 65 c62 60 72 70 64 70 -1 0 -32 -30 -67 -67z"/>
<path d="M3579 863 c-13 -16 -12 -17 4 -4 16 13 21 21 13 21 -2 0 -10 -8 -17
-17z"/>
<path d="M2160 550 c-11 -7 -1 -10 35 -10 46 0 130 -17 179 -36 13 -5 17 -4
12 4 -16 26 -198 60 -226 42z"/>
<path d="M2395 520 c37 -42 57 -59 69 -60 13 0 -33 47 -69 73 l-30 20 30 -33z"/>
<path d="M3017 539 c-36 -4 -65 -13 -75 -24 -16 -17 -16 -17 3 -11 54 19 126
28 190 23 38 -3 61 -2 50 2 -33 13 -106 17 -168 10z"/>
<path d="M830 446 c0 -2 7 -7 16 -10 8 -3 12 -2 9 4 -6 10 -25 14 -25 6z"/>
<path d="M795 430 c3 -5 8 -10 11 -10 2 0 4 5 4 10 0 6 -5 10 -11 10 -5 0 -7
-4 -4 -10z"/>
<path d="M1902 330 c0 -19 2 -27 5 -17 2 9 2 25 0 35 -3 9 -5 1 -5 -18z"/>
<path d="M3900 343 c0 -5 5 -14 11 -20 8 -8 5 -14 -11 -23 -12 -6 -19 -14 -17
-17 8 -7 47 16 47 28 0 6 -7 17 -15 25 -8 9 -15 12 -15 7z"/>
<path d="M3855 280 c-3 -5 -1 -10 4 -10 6 0 11 5 11 10 0 6 -2 10 -4 10 -3 0
-8 -4 -11 -10z"/>
<path d="M3815 270 c-3 -5 -2 -10 4 -10 5 0 13 5 16 10 3 6 2 10 -4 10 -5 0
-13 -4 -16 -10z"/>
</g>
</svg>
